<svg width="289" height="66" viewBox="0 0 289 66" fill="none" xmlns="http://www.w3.org/2000/svg">
<path d="M78.7078 62.4563C78.4369 62.4563 78.2288 62.3398 78.0837 62.1067C77.9386 61.8736 77.9241 61.626 78.0402 61.3638L82.1183 51.589C82.2635 51.2491 82.5005 51.0791 82.8295 51.0791C83.1778 51.0791 83.4148 51.2491 83.5406 51.589L87.6333 61.3929C87.7397 61.6648 87.7204 61.9125 87.5752 62.1359C87.4398 62.3495 87.2318 62.4563 86.9512 62.4563C86.806 62.4563 86.6658 62.4175 86.5303 62.3398C86.4045 62.2524 86.3126 62.1359 86.2546 61.9902L82.6553 53.0166H83.0617L79.4044 61.9902C79.3367 62.1456 79.2351 62.2621 79.0996 62.3398C78.9738 62.4175 78.8432 62.4563 78.7078 62.4563ZM79.477 59.9507L80.0575 58.6979H85.7466L86.3271 59.9507H79.477Z" fill="#3BACB6"/>
<path d="M89.9572 65.8651C89.7443 65.8651 89.5653 65.7923 89.4202 65.6466C89.2848 65.5107 89.217 65.3359 89.217 65.1222V58.4794C89.2267 57.7122 89.4057 57.0227 89.754 56.4108C90.1023 55.799 90.5764 55.3183 91.1763 54.9686C91.7762 54.6093 92.4534 54.4296 93.2081 54.4296C93.9725 54.4296 94.6546 54.6093 95.2545 54.9686C95.8543 55.3183 96.3284 55.799 96.6767 56.4108C97.0347 57.0227 97.2137 57.7122 97.2137 58.4794C97.2137 59.2466 97.0492 59.9362 96.7203 60.548C96.401 61.1501 95.9608 61.6309 95.3996 61.9902C94.8384 62.3398 94.2047 62.5146 93.4984 62.5146C92.9275 62.5146 92.4002 62.3981 91.9164 62.165C91.4424 61.9222 91.036 61.5969 90.6974 61.189V65.1222C90.6974 65.3359 90.6296 65.5107 90.4942 65.6466C90.3587 65.7923 90.1797 65.8651 89.9572 65.8651ZM93.2081 61.2035C93.7016 61.2035 94.1418 61.087 94.5288 60.8539C94.9158 60.6111 95.2206 60.2858 95.4431 59.8779C95.6753 59.4603 95.7914 58.9941 95.7914 58.4794C95.7914 57.955 95.6753 57.4888 95.4431 57.0809C95.2206 56.6633 94.9158 56.338 94.5288 56.1049C94.1418 55.8621 93.7016 55.7407 93.2081 55.7407C92.7243 55.7407 92.2841 55.8621 91.8874 56.1049C91.5004 56.338 91.1956 56.6633 90.9731 57.0809C90.7506 57.4888 90.6393 57.955 90.6393 58.4794C90.6393 58.9941 90.7506 59.4603 90.9731 59.8779C91.1956 60.2858 91.5004 60.6111 91.8874 60.8539C92.2841 61.087 92.7243 61.2035 93.2081 61.2035Z" fill="#3BACB6"/>
<path d="M101.308 62.4563C100.882 62.4563 100.505 62.3398 100.176 62.1067C99.8472 61.8736 99.5908 61.558 99.407 61.1598C99.2232 60.7519 99.1312 60.2858 99.1312 59.7614V51.8075C99.1312 51.5938 99.199 51.419 99.3344 51.283C99.4699 51.1471 99.644 51.0791 99.8569 51.0791C100.07 51.0791 100.244 51.1471 100.379 51.283C100.515 51.419 100.583 51.5938 100.583 51.8075V59.7614C100.583 60.1207 100.65 60.4169 100.786 60.65C100.921 60.883 101.095 60.9996 101.308 60.9996H101.671C101.865 60.9996 102.019 61.0676 102.135 61.2035C102.261 61.3395 102.324 61.5143 102.324 61.728C102.324 61.9416 102.232 62.1164 102.048 62.2524C101.865 62.3884 101.627 62.4563 101.337 62.4563H101.308Z" fill="#3BACB6"/>
<path d="M104.658 62.4563C104.445 62.4563 104.266 62.3884 104.121 62.2524C103.985 62.1067 103.918 61.9271 103.918 61.7134V55.2308C103.918 55.0075 103.985 54.8278 104.121 54.6918C104.266 54.5559 104.445 54.4879 104.658 54.4879C104.88 54.4879 105.059 54.5559 105.195 54.6918C105.33 54.8278 105.398 55.0075 105.398 55.2308V61.7134C105.398 61.9271 105.33 62.1067 105.195 62.2524C105.059 62.3884 104.88 62.4563 104.658 62.4563ZM104.658 53.1914C104.397 53.1914 104.169 53.0991 103.976 52.9146C103.792 52.7204 103.7 52.4922 103.7 52.2299C103.7 51.9677 103.792 51.7444 103.976 51.5598C104.169 51.3656 104.397 51.2685 104.658 51.2685C104.919 51.2685 105.142 51.3656 105.325 51.5598C105.519 51.7444 105.616 51.9677 105.616 52.2299C105.616 52.4922 105.519 52.7204 105.325 52.9146C105.142 53.0991 104.919 53.1914 104.658 53.1914Z" fill="#3BACB6"/>
<path d="M109.545 59.5428L108.645 58.5522L113.101 54.5607C113.246 54.4248 113.406 54.3617 113.58 54.3714C113.764 54.3811 113.919 54.4588 114.044 54.6044C114.18 54.7501 114.243 54.9104 114.233 55.0852C114.223 55.26 114.146 55.4154 114.001 55.5513L109.545 59.5428ZM108.863 62.4563C108.65 62.4563 108.476 62.3932 108.341 62.267C108.215 62.131 108.152 61.9562 108.152 61.7425V51.7929C108.152 51.5793 108.215 51.4093 108.341 51.283C108.476 51.1471 108.65 51.0791 108.863 51.0791C109.076 51.0791 109.245 51.1471 109.371 51.283C109.507 51.4093 109.574 51.5793 109.574 51.7929V61.7425C109.574 61.9562 109.507 62.131 109.371 62.267C109.245 62.3932 109.076 62.4563 108.863 62.4563ZM114.044 62.3835C113.889 62.5098 113.715 62.5632 113.522 62.5437C113.338 62.534 113.183 62.4515 113.057 62.2961L110.111 58.6397L111.127 57.6782L114.146 61.4075C114.272 61.5629 114.325 61.7328 114.306 61.9173C114.296 62.0922 114.209 62.2475 114.044 62.3835Z" fill="#3BACB6"/>
<path d="M119.001 62.5146C118.295 62.5146 117.661 62.3398 117.1 61.9902C116.539 61.6309 116.094 61.1501 115.765 60.548C115.445 59.9362 115.286 59.2466 115.286 58.4794C115.286 57.7122 115.46 57.0227 115.808 56.4108C116.166 55.799 116.645 55.3183 117.245 54.9686C117.854 54.6093 118.537 54.4296 119.291 54.4296C120.046 54.4296 120.723 54.6093 121.323 54.9686C121.923 55.3183 122.397 55.799 122.745 56.4108C123.103 57.0227 123.282 57.7122 123.282 58.4794H122.716C122.716 59.2466 122.552 59.9362 122.223 60.548C121.904 61.1501 121.463 61.6309 120.902 61.9902C120.341 62.3398 119.707 62.5146 119.001 62.5146ZM119.291 61.2035C119.785 61.2035 120.225 61.087 120.612 60.8539C120.999 60.6111 121.304 60.2858 121.526 59.8779C121.749 59.4603 121.86 58.9941 121.86 58.4794C121.86 57.955 121.749 57.4888 121.526 57.0809C121.304 56.6633 120.999 56.338 120.612 56.1049C120.225 55.8621 119.785 55.7407 119.291 55.7407C118.807 55.7407 118.367 55.8621 117.971 56.1049C117.584 56.338 117.274 56.6633 117.042 57.0809C116.819 57.4888 116.708 57.955 116.708 58.4794C116.708 58.9941 116.819 59.4603 117.042 59.8779C117.274 60.2858 117.584 60.6111 117.971 60.8539C118.367 61.087 118.807 61.2035 119.291 61.2035ZM122.542 62.4709C122.329 62.4709 122.15 62.4029 122.005 62.267C121.87 62.1213 121.802 61.9416 121.802 61.728V59.4991L122.078 57.955L123.282 58.4794V61.728C123.282 61.9416 123.21 62.1213 123.065 62.267C122.929 62.4029 122.755 62.4709 122.542 62.4709Z" fill="#3BACB6"/>
<path d="M128.374 62.5146C127.696 62.5146 127.067 62.4126 126.487 62.2087C125.916 61.995 125.471 61.728 125.152 61.4075C125.007 61.2521 124.944 61.0773 124.963 60.8831C124.992 60.6791 125.089 60.514 125.253 60.3878C125.447 60.2324 125.635 60.1692 125.819 60.1984C126.013 60.2178 126.177 60.3003 126.313 60.446C126.477 60.6305 126.738 60.8054 127.096 60.9705C127.464 61.1258 127.87 61.2035 128.315 61.2035C128.877 61.2035 129.302 61.1113 129.593 60.9268C129.893 60.7422 130.047 60.5043 130.057 60.2129C130.067 59.9216 129.926 59.6691 129.636 59.4554C129.356 59.2418 128.838 59.067 128.083 58.931C127.106 58.7368 126.395 58.4454 125.95 58.0569C125.514 57.6685 125.297 57.1926 125.297 56.6293C125.297 56.134 125.442 55.7261 125.732 55.4057C126.022 55.0755 126.395 54.8327 126.85 54.6773C127.304 54.5122 127.779 54.4296 128.272 54.4296C128.911 54.4296 129.477 54.5316 129.97 54.7356C130.463 54.9395 130.855 55.2211 131.146 55.5805C131.281 55.7359 131.344 55.901 131.334 56.0758C131.325 56.2409 131.242 56.3817 131.087 56.4982C130.933 56.6051 130.749 56.639 130.536 56.6002C130.323 56.5613 130.144 56.4739 129.999 56.338C129.757 56.1049 129.496 55.9447 129.215 55.8573C128.935 55.7698 128.611 55.7261 128.243 55.7261C127.817 55.7261 127.454 55.799 127.154 55.9447C126.864 56.0903 126.719 56.304 126.719 56.5856C126.719 56.7604 126.763 56.9207 126.85 57.0664C126.946 57.2023 127.13 57.3286 127.401 57.4451C127.672 57.5519 128.069 57.6588 128.591 57.7656C129.317 57.9113 129.888 58.0958 130.304 58.3192C130.729 58.5425 131.034 58.8047 131.218 59.1058C131.402 59.3972 131.494 59.7371 131.494 60.1255C131.494 60.5723 131.373 60.9753 131.131 61.3346C130.899 61.694 130.551 61.9805 130.086 62.1941C129.631 62.4078 129.06 62.5146 128.374 62.5146Z" fill="#3BACB6"/>
<path d="M134.251 62.4563C134.038 62.4563 133.859 62.3884 133.714 62.2524C133.578 62.1067 133.511 61.9271 133.511 61.7134V55.2308C133.511 55.0075 133.578 54.8278 133.714 54.6918C133.859 54.5559 134.038 54.4879 134.251 54.4879C134.473 54.4879 134.652 54.5559 134.788 54.6918C134.923 54.8278 134.991 55.0075 134.991 55.2308V61.7134C134.991 61.9271 134.923 62.1067 134.788 62.2524C134.652 62.3884 134.473 62.4563 134.251 62.4563ZM134.251 53.1914C133.99 53.1914 133.762 53.0991 133.569 52.9146C133.385 52.7204 133.293 52.4922 133.293 52.2299C133.293 51.9677 133.385 51.7444 133.569 51.5598C133.762 51.3656 133.99 51.2685 134.251 51.2685C134.512 51.2685 134.735 51.3656 134.918 51.5598C135.112 51.7444 135.209 51.9677 135.209 52.2299C135.209 52.4922 135.112 52.7204 134.918 52.9146C134.735 53.0991 134.512 53.1914 134.251 53.1914Z" fill="#3BACB6"/>
<path d="M142.897 62.4563C142.684 62.4563 142.505 62.3835 142.36 62.2378C142.215 62.0922 142.142 61.9125 142.142 61.6988V51.8366C142.142 51.6132 142.215 51.4336 142.36 51.2976C142.505 51.1519 142.684 51.0791 142.897 51.0791C143.187 51.0791 143.409 51.2151 143.564 51.487L148.107 60.6208H147.642L152.069 51.487C152.224 51.2151 152.446 51.0791 152.737 51.0791C152.949 51.0791 153.128 51.1519 153.273 51.2976C153.419 51.4336 153.491 51.6132 153.491 51.8366V61.6988C153.491 61.9125 153.414 62.0922 153.259 62.2378C153.114 62.3835 152.94 62.4563 152.737 62.4563C152.524 62.4563 152.345 62.3835 152.2 62.2378C152.054 62.0922 151.982 61.9125 151.982 61.6988V53.9343L152.272 53.8615L148.47 61.6406C148.305 61.8931 148.088 62.0193 147.817 62.0193C147.497 62.0193 147.265 61.8688 147.12 61.5677L143.361 54.0072L143.651 53.9343V61.6988C143.651 61.9125 143.579 62.0922 143.434 62.2378C143.289 62.3835 143.11 62.4563 142.897 62.4563Z" fill="#3BACB6"/>
<path d="M159.564 62.5146C158.857 62.5146 158.224 62.3398 157.663 61.9902C157.101 61.6309 156.656 61.1501 156.327 60.548C156.008 59.9362 155.848 59.2466 155.848 58.4794C155.848 57.7122 156.023 57.0227 156.371 56.4108C156.729 55.799 157.208 55.3183 157.808 54.9686C158.417 54.6093 159.099 54.4296 159.854 54.4296C160.609 54.4296 161.286 54.6093 161.886 54.9686C162.486 55.3183 162.96 55.799 163.308 56.4108C163.666 57.0227 163.845 57.7122 163.845 58.4794H163.279C163.279 59.2466 163.115 59.9362 162.786 60.548C162.466 61.1501 162.026 61.6309 161.465 61.9902C160.904 62.3398 160.27 62.5146 159.564 62.5146ZM159.854 61.2035C160.347 61.2035 160.788 61.087 161.175 60.8539C161.562 60.6111 161.866 60.2858 162.089 59.8779C162.312 59.4603 162.423 58.9941 162.423 58.4794C162.423 57.955 162.312 57.4888 162.089 57.0809C161.866 56.6633 161.562 56.338 161.175 56.1049C160.788 55.8621 160.347 55.7407 159.854 55.7407C159.37 55.7407 158.93 55.8621 158.533 56.1049C158.146 56.338 157.837 56.6633 157.605 57.0809C157.382 57.4888 157.271 57.955 157.271 58.4794C157.271 58.9941 157.382 59.4603 157.605 59.8779C157.837 60.2858 158.146 60.6111 158.533 60.8539C158.93 61.087 159.37 61.2035 159.854 61.2035ZM163.105 62.4709C162.892 62.4709 162.713 62.4029 162.568 62.267C162.433 62.1213 162.365 61.9416 162.365 61.728V59.4991L162.641 57.955L163.845 58.4794V61.728C163.845 61.9416 163.773 62.1213 163.627 62.267C163.492 62.4029 163.318 62.4709 163.105 62.4709Z" fill="#3BACB6"/>
<path d="M172.753 62.4709C172.54 62.4709 172.361 62.4029 172.216 62.267C172.081 62.1213 172.013 61.9416 172.013 61.728V58.1444C172.013 57.5908 171.912 57.1392 171.708 56.7896C171.505 56.44 171.229 56.1826 170.881 56.0175C170.542 55.8427 170.151 55.7553 169.706 55.7553C169.299 55.7553 168.932 55.8378 168.603 56.0029C168.274 56.168 168.012 56.3914 167.819 56.673C167.625 56.945 167.529 57.2606 167.529 57.6199H166.614C166.614 57.0081 166.759 56.4642 167.05 55.9884C167.35 55.5028 167.756 55.1192 168.269 54.8375C168.782 54.5559 169.357 54.4151 169.996 54.4151C170.663 54.4151 171.258 54.5607 171.781 54.8521C172.313 55.1337 172.729 55.5513 173.029 56.1049C173.339 56.6585 173.493 57.3383 173.493 58.1444V61.728C173.493 61.9416 173.421 62.1213 173.276 62.267C173.14 62.4029 172.966 62.4709 172.753 62.4709ZM166.788 62.4709C166.576 62.4709 166.397 62.4029 166.251 62.267C166.116 62.1213 166.048 61.9416 166.048 61.728V55.2308C166.048 55.0075 166.116 54.8278 166.251 54.6918C166.397 54.5559 166.576 54.4879 166.788 54.4879C167.011 54.4879 167.19 54.5559 167.325 54.6918C167.461 54.8278 167.529 55.0075 167.529 55.2308V61.728C167.529 61.9416 167.461 62.1213 167.325 62.267C167.19 62.4029 167.011 62.4709 166.788 62.4709Z" fill="#3BACB6"/>
<path d="M179.25 62.5146C178.544 62.5146 177.91 62.3398 177.349 61.9902C176.788 61.6309 176.342 61.1501 176.014 60.548C175.694 59.9362 175.535 59.2466 175.535 58.4794C175.535 57.7122 175.709 57.0227 176.057 56.4108C176.415 55.799 176.894 55.3183 177.494 54.9686C178.103 54.6093 178.785 54.4296 179.54 54.4296C180.295 54.4296 180.972 54.6093 181.572 54.9686C182.172 55.3183 182.646 55.799 182.994 56.4108C183.352 57.0227 183.531 57.7122 183.531 58.4794H182.965C182.965 59.2466 182.801 59.9362 182.472 60.548C182.153 61.1501 181.712 61.6309 181.151 61.9902C180.59 62.3398 179.956 62.5146 179.25 62.5146ZM179.54 61.2035C180.034 61.2035 180.474 61.087 180.861 60.8539C181.248 60.6111 181.553 60.2858 181.775 59.8779C181.998 59.4603 182.109 58.9941 182.109 58.4794C182.109 57.955 181.998 57.4888 181.775 57.0809C181.553 56.6633 181.248 56.338 180.861 56.1049C180.474 55.8621 180.034 55.7407 179.54 55.7407C179.056 55.7407 178.616 55.8621 178.219 56.1049C177.832 56.338 177.523 56.6633 177.291 57.0809C177.068 57.4888 176.957 57.955 176.957 58.4794C176.957 58.9941 177.068 59.4603 177.291 59.8779C177.523 60.2858 177.832 60.6111 178.219 60.8539C178.616 61.087 179.056 61.2035 179.54 61.2035ZM182.791 62.4709C182.578 62.4709 182.399 62.4029 182.254 62.267C182.119 62.1213 182.051 61.9416 182.051 61.728V59.4991L182.327 57.955L183.531 58.4794V61.728C183.531 61.9416 183.459 62.1213 183.314 62.267C183.178 62.4029 183.004 62.4709 182.791 62.4709Z" fill="#3BACB6"/>
<path d="M183.703 65.8651C183.49 65.8651 183.316 65.7923 183.18 65.6466C183.045 65.5107 182.977 65.3359 182.977 65.1222C182.977 64.8988 183.045 64.7192 183.18 64.5832C183.316 64.4472 183.49 64.3793 183.703 64.3793C184.09 64.3793 184.428 64.2919 184.718 64.117C185.009 63.9519 185.236 63.7237 185.401 63.4324C185.575 63.141 185.662 62.806 185.662 62.4272V55.2308C185.662 55.0075 185.73 54.8278 185.865 54.6918C186.01 54.5559 186.189 54.4879 186.402 54.4879C186.625 54.4879 186.804 54.5559 186.939 54.6918C187.074 54.8278 187.142 55.0075 187.142 55.2308V62.4272C187.142 63.0973 186.992 63.6897 186.692 64.2044C186.402 64.7192 186 65.1222 185.488 65.4136C184.975 65.7146 184.38 65.8651 183.703 65.8651ZM186.402 53.1914C186.141 53.1914 185.913 53.0991 185.72 52.9146C185.536 52.7204 185.444 52.4922 185.444 52.2299C185.444 51.9677 185.536 51.7444 185.72 51.5598C185.913 51.3656 186.141 51.2685 186.402 51.2685C186.663 51.2685 186.886 51.3656 187.07 51.5598C187.263 51.7444 187.36 51.9677 187.36 52.2299C187.36 52.4922 187.263 52.7204 187.07 52.9146C186.886 53.0991 186.663 53.1914 186.402 53.1914Z" fill="#3BACB6"/>
<path d="M193.05 62.5146C192.247 62.5146 191.531 62.3447 190.902 62.0048C190.283 61.6551 189.794 61.1793 189.436 60.5771C189.088 59.9653 188.914 59.2661 188.914 58.4794C188.914 57.683 189.078 56.9838 189.407 56.3817C189.746 55.7698 190.21 55.294 190.8 54.9541C191.391 54.6044 192.068 54.4296 192.832 54.4296C193.587 54.4296 194.235 54.5996 194.777 54.9395C195.319 55.2697 195.73 55.731 196.011 56.3234C196.301 56.9061 196.446 57.5811 196.446 58.3483C196.446 58.5328 196.383 58.6882 196.257 58.8145C196.132 58.931 195.972 58.9893 195.778 58.9893H189.93V57.8239H195.735L195.14 58.2318C195.13 57.7462 195.033 57.314 194.85 56.9352C194.666 56.5468 194.405 56.2409 194.066 56.0175C193.727 55.7941 193.316 55.6824 192.832 55.6824C192.281 55.6824 191.807 55.8038 191.41 56.0466C191.023 56.2894 190.728 56.6245 190.525 57.0518C190.322 57.4694 190.22 57.9453 190.22 58.4794C190.22 59.0136 190.341 59.4894 190.583 59.907C190.825 60.3246 191.158 60.6548 191.584 60.8976C192.01 61.1404 192.498 61.2618 193.05 61.2618C193.35 61.2618 193.655 61.2084 193.964 61.1016C194.284 60.985 194.54 60.8539 194.734 60.7082C194.879 60.6014 195.033 60.548 195.198 60.548C195.372 60.5383 195.522 60.5868 195.648 60.6937C195.812 60.8393 195.899 60.9996 195.909 61.1744C195.919 61.3492 195.841 61.4997 195.677 61.626C195.348 61.8882 194.937 62.1019 194.443 62.267C193.959 62.4321 193.495 62.5146 193.05 62.5146Z" fill="#3BACB6"/>
<path d="M208.754 62.4709C208.542 62.4709 208.363 62.4029 208.217 62.267C208.082 62.1213 208.014 61.9416 208.014 61.728V57.5617C208.014 56.9498 207.864 56.4982 207.564 56.2069C207.264 55.9058 206.873 55.7553 206.389 55.7553C205.886 55.7553 205.47 55.9301 205.141 56.2797C204.821 56.6293 204.662 57.0761 204.662 57.6199H203.457C203.457 56.9887 203.593 56.4351 203.864 55.9592C204.134 55.4736 204.512 55.0949 204.996 54.823C205.489 54.551 206.05 54.4151 206.679 54.4151C207.231 54.4151 207.719 54.5365 208.145 54.7793C208.571 55.022 208.9 55.3814 209.132 55.8573C209.374 56.3234 209.495 56.8915 209.495 57.5617V61.728C209.495 61.9416 209.427 62.1213 209.291 62.267C209.156 62.4029 208.977 62.4709 208.754 62.4709ZM199.074 62.4709C198.861 62.4709 198.682 62.4029 198.537 62.267C198.402 62.1213 198.334 61.9416 198.334 61.728V55.2454C198.334 55.022 198.402 54.8424 198.537 54.7064C198.682 54.5705 198.861 54.5025 199.074 54.5025C199.297 54.5025 199.476 54.5705 199.611 54.7064C199.747 54.8424 199.814 55.022 199.814 55.2454V61.728C199.814 61.9416 199.747 62.1213 199.611 62.267C199.476 62.4029 199.297 62.4709 199.074 62.4709ZM203.922 62.4709C203.709 62.4709 203.53 62.4029 203.385 62.267C203.249 62.1213 203.181 61.9416 203.181 61.728V57.5617C203.181 56.9498 203.032 56.4982 202.732 56.2069C202.432 55.9058 202.04 55.7553 201.556 55.7553C201.053 55.7553 200.637 55.9301 200.308 56.2797C199.979 56.6293 199.814 57.0761 199.814 57.6199H198.9C198.9 56.9887 199.026 56.4351 199.277 55.9592C199.529 55.4736 199.877 55.0949 200.322 54.823C200.767 54.551 201.275 54.4151 201.846 54.4151C202.398 54.4151 202.886 54.5365 203.312 54.7793C203.738 55.022 204.067 55.3814 204.299 55.8573C204.541 56.3234 204.662 56.8915 204.662 57.5617V61.728C204.662 61.9416 204.594 62.1213 204.459 62.267C204.323 62.4029 204.144 62.4709 203.922 62.4709Z" fill="#3BACB6"/>
<path d="M215.684 62.5146C214.881 62.5146 214.165 62.3447 213.536 62.0048C212.917 61.6551 212.428 61.1793 212.07 60.5771C211.722 59.9653 211.548 59.2661 211.548 58.4794C211.548 57.683 211.712 56.9838 212.041 56.3817C212.38 55.7698 212.844 55.294 213.435 54.9541C214.025 54.6044 214.702 54.4296 215.466 54.4296C216.221 54.4296 216.869 54.5996 217.411 54.9395C217.953 55.2697 218.364 55.731 218.645 56.3234C218.935 56.9061 219.08 57.5811 219.08 58.3483C219.08 58.5328 219.017 58.6882 218.891 58.8145C218.766 58.931 218.606 58.9893 218.413 58.9893H212.564V57.8239H218.369L217.774 58.2318C217.764 57.7462 217.668 57.314 217.484 56.9352C217.3 56.5468 217.039 56.2409 216.7 56.0175C216.361 55.7941 215.95 55.6824 215.466 55.6824C214.915 55.6824 214.441 55.8038 214.044 56.0466C213.657 56.2894 213.362 56.6245 213.159 57.0518C212.956 57.4694 212.854 57.9453 212.854 58.4794C212.854 59.0136 212.975 59.4894 213.217 59.907C213.459 60.3246 213.793 60.6548 214.218 60.8976C214.644 61.1404 215.133 61.2618 215.684 61.2618C215.984 61.2618 216.289 61.2084 216.598 61.1016C216.918 60.985 217.174 60.8539 217.368 60.7082C217.513 60.6014 217.668 60.548 217.832 60.548C218.006 60.5383 218.156 60.5868 218.282 60.6937C218.446 60.8393 218.533 60.9996 218.543 61.1744C218.553 61.3492 218.475 61.4997 218.311 61.626C217.982 61.8882 217.571 62.1019 217.077 62.267C216.594 62.4321 216.129 62.5146 215.684 62.5146Z" fill="#3BACB6"/>
<path d="M227.673 62.4709C227.46 62.4709 227.281 62.4029 227.136 62.267C227.001 62.1213 226.933 61.9416 226.933 61.728V58.1444C226.933 57.5908 226.831 57.1392 226.628 56.7896C226.425 56.44 226.149 56.1826 225.801 56.0175C225.462 55.8427 225.071 55.7553 224.626 55.7553C224.219 55.7553 223.851 55.8378 223.523 56.0029C223.194 56.168 222.932 56.3914 222.739 56.673C222.545 56.945 222.449 57.2606 222.449 57.6199H221.534C221.534 57.0081 221.679 56.4642 221.97 55.9884C222.27 55.5028 222.676 55.1192 223.189 54.8375C223.701 54.5559 224.277 54.4151 224.916 54.4151C225.583 54.4151 226.178 54.5607 226.701 54.8521C227.233 55.1337 227.649 55.5513 227.949 56.1049C228.259 56.6585 228.413 57.3383 228.413 58.1444V61.728C228.413 61.9416 228.341 62.1213 228.196 62.267C228.06 62.4029 227.886 62.4709 227.673 62.4709ZM221.708 62.4709C221.496 62.4709 221.317 62.4029 221.171 62.267C221.036 62.1213 220.968 61.9416 220.968 61.728V55.2308C220.968 55.0075 221.036 54.8278 221.171 54.6918C221.317 54.5559 221.496 54.4879 221.708 54.4879C221.931 54.4879 222.11 54.5559 222.245 54.6918C222.381 54.8278 222.449 55.0075 222.449 55.2308V61.728C222.449 61.9416 222.381 62.1213 222.245 62.267C222.11 62.4029 221.931 62.4709 221.708 62.4709Z" fill="#3BACB6"/>
<path d="M234.808 62.4563C234.537 62.4563 234.329 62.3398 234.184 62.1067C234.039 61.8736 234.024 61.626 234.14 61.3638L238.219 51.589C238.364 51.2491 238.601 51.0791 238.93 51.0791C239.278 51.0791 239.515 51.2491 239.641 51.589L243.734 61.3929C243.84 61.6648 243.821 61.9125 243.675 62.1359C243.54 62.3495 243.332 62.4563 243.051 62.4563C242.906 62.4563 242.766 62.4175 242.631 62.3398C242.505 62.2524 242.413 62.1359 242.355 61.9902L238.756 53.0166H239.162L235.505 61.9902C235.437 62.1456 235.335 62.2621 235.2 62.3398C235.074 62.4175 234.943 62.4563 234.808 62.4563ZM235.577 59.9507L236.158 58.6979H241.847L242.427 59.9507H235.577Z" fill="#3BACB6"/>
<path d="M246.057 65.8651C245.845 65.8651 245.666 65.7923 245.52 65.6466C245.385 65.5107 245.317 65.3359 245.317 65.1222V58.4794C245.327 57.7122 245.506 57.0227 245.854 56.4108C246.203 55.799 246.677 55.3183 247.276 54.9686C247.876 54.6093 248.554 54.4296 249.308 54.4296C250.073 54.4296 250.755 54.6093 251.355 54.9686C251.955 55.3183 252.429 55.799 252.777 56.4108C253.135 57.0227 253.314 57.7122 253.314 58.4794C253.314 59.2466 253.149 59.9362 252.82 60.548C252.501 61.1501 252.061 61.6309 251.5 61.9902C250.939 62.3398 250.305 62.5146 249.599 62.5146C249.028 62.5146 248.5 62.3981 248.017 62.165C247.543 61.9222 247.136 61.5969 246.798 61.189V65.1222C246.798 65.3359 246.73 65.5107 246.594 65.6466C246.459 65.7923 246.28 65.8651 246.057 65.8651ZM249.308 61.2035C249.802 61.2035 250.242 61.087 250.629 60.8539C251.016 60.6111 251.321 60.2858 251.543 59.8779C251.776 59.4603 251.892 58.9941 251.892 58.4794C251.892 57.955 251.776 57.4888 251.543 57.0809C251.321 56.6633 251.016 56.338 250.629 56.1049C250.242 55.8621 249.802 55.7407 249.308 55.7407C248.825 55.7407 248.384 55.8621 247.988 56.1049C247.601 56.338 247.296 56.6633 247.073 57.0809C246.851 57.4888 246.74 57.955 246.74 58.4794C246.74 58.9941 246.851 59.4603 247.073 59.8779C247.296 60.2858 247.601 60.6111 247.988 60.8539C248.384 61.087 248.825 61.2035 249.308 61.2035Z" fill="#3BACB6"/>
<path d="M259.121 62.5146C258.337 62.5146 257.645 62.3447 257.046 62.0048C256.446 61.6551 255.972 61.1793 255.623 60.5771C255.285 59.9653 255.115 59.2661 255.115 58.4794C255.115 57.683 255.285 56.9838 255.623 56.3817C255.972 55.7698 256.446 55.294 257.046 54.9541C257.645 54.6044 258.337 54.4296 259.121 54.4296C259.895 54.4296 260.582 54.6044 261.182 54.9541C261.782 55.294 262.251 55.7698 262.59 56.3817C262.938 56.9838 263.112 57.683 263.112 58.4794C263.112 59.2661 262.943 59.9653 262.604 60.5771C262.265 61.1793 261.796 61.6551 261.196 62.0048C260.596 62.3447 259.905 62.5146 259.121 62.5146ZM259.121 61.2035C259.624 61.2035 260.069 61.087 260.456 60.8539C260.843 60.6208 261.143 60.3004 261.356 59.8925C261.578 59.4846 261.69 59.0136 261.69 58.4794C261.69 57.9453 261.578 57.4742 261.356 57.0664C261.143 56.6488 260.843 56.3234 260.456 56.0903C260.069 55.8573 259.624 55.7407 259.121 55.7407C258.618 55.7407 258.173 55.8573 257.786 56.0903C257.399 56.3234 257.094 56.6488 256.871 57.0664C256.649 57.4742 256.538 57.9453 256.538 58.4794C256.538 59.0136 256.649 59.4846 256.871 59.8925C257.094 60.3004 257.399 60.6208 257.786 60.8539C258.173 61.087 258.618 61.2035 259.121 61.2035Z" fill="#3BACB6"/>
<path d="M268.203 62.4563C267.72 62.4563 267.284 62.3349 266.897 62.0922C266.51 61.8397 266.205 61.4997 265.983 61.0724C265.76 60.6451 265.649 60.1644 265.649 59.6302V52.6815C265.649 52.4679 265.717 52.2931 265.852 52.1571C265.988 52.0211 266.162 51.9532 266.375 51.9532C266.587 51.9532 266.762 52.0211 266.897 52.1571C267.033 52.2931 267.1 52.4679 267.1 52.6815V59.6302C267.1 60.0187 267.207 60.3441 267.42 60.6063C267.632 60.8685 267.894 60.9996 268.203 60.9996H268.697C268.871 60.9996 269.016 61.0676 269.132 61.2035C269.258 61.3395 269.321 61.5143 269.321 61.728C269.321 61.9416 269.239 62.1164 269.074 62.2524C268.919 62.3884 268.716 62.4563 268.464 62.4563H268.203ZM264.981 56.0321C264.778 56.0321 264.614 55.9738 264.488 55.8573C264.362 55.7407 264.299 55.595 264.299 55.4202C264.299 55.226 264.362 55.0706 264.488 54.9541C264.614 54.8375 264.778 54.7793 264.981 54.7793H268.334C268.537 54.7793 268.702 54.8375 268.827 54.9541C268.953 55.0706 269.016 55.226 269.016 55.4202C269.016 55.595 268.953 55.7407 268.827 55.8573C268.702 55.9738 268.537 56.0321 268.334 56.0321H264.981Z" fill="#3BACB6"/>
<path d="M274.87 62.5146C274.067 62.5146 273.351 62.3447 272.722 62.0048C272.103 61.6551 271.614 61.1793 271.256 60.5771C270.908 59.9653 270.734 59.2661 270.734 58.4794C270.734 57.683 270.898 56.9838 271.227 56.3817C271.566 55.7698 272.03 55.294 272.621 54.9541C273.211 54.6044 273.888 54.4296 274.652 54.4296C275.407 54.4296 276.055 54.5996 276.597 54.9395C277.139 55.2697 277.55 55.731 277.831 56.3234C278.121 56.9061 278.266 57.5811 278.266 58.3483C278.266 58.5328 278.203 58.6882 278.077 58.8145C277.952 58.931 277.792 58.9893 277.599 58.9893H271.75V57.8239H277.555L276.96 58.2318C276.95 57.7462 276.854 57.314 276.67 56.9352C276.486 56.5468 276.225 56.2409 275.886 56.0175C275.547 55.7941 275.136 55.6824 274.652 55.6824C274.101 55.6824 273.627 55.8038 273.23 56.0466C272.843 56.2894 272.548 56.6245 272.345 57.0518C272.142 57.4694 272.04 57.9453 272.04 58.4794C272.04 59.0136 272.161 59.4894 272.403 59.907C272.645 60.3246 272.979 60.6548 273.404 60.8976C273.83 61.1404 274.319 61.2618 274.87 61.2618C275.17 61.2618 275.475 61.2084 275.784 61.1016C276.104 60.985 276.36 60.8539 276.554 60.7082C276.699 60.6014 276.854 60.548 277.018 60.548C277.192 60.5383 277.342 60.5868 277.468 60.6937C277.632 60.8393 277.719 60.9996 277.729 61.1744C277.739 61.3492 277.661 61.4997 277.497 61.626C277.168 61.8882 276.757 62.1019 276.263 62.267C275.78 62.4321 275.315 62.5146 274.87 62.5146Z" fill="#3BACB6"/>
<path d="M281.547 59.5428L280.648 58.5522L285.103 54.5607C285.248 54.4248 285.408 54.3617 285.582 54.3714C285.766 54.3811 285.921 54.4588 286.046 54.6044C286.182 54.7501 286.245 54.9104 286.235 55.0852C286.225 55.26 286.148 55.4154 286.003 55.5513L281.547 59.5428ZM280.865 62.4563C280.652 62.4563 280.478 62.3932 280.343 62.267C280.217 62.131 280.154 61.9562 280.154 61.7425V51.7929C280.154 51.5793 280.217 51.4093 280.343 51.283C280.478 51.1471 280.652 51.0791 280.865 51.0791C281.078 51.0791 281.248 51.1471 281.373 51.283C281.509 51.4093 281.576 51.5793 281.576 51.7929V61.7425C281.576 61.9562 281.509 62.131 281.373 62.267C281.248 62.3932 281.078 62.4563 280.865 62.4563ZM286.046 62.3835C285.892 62.5098 285.718 62.5632 285.524 62.5437C285.34 62.534 285.185 62.4515 285.06 62.2961L282.113 58.6397L283.129 57.6782L286.148 61.4075C286.274 61.5629 286.327 61.7328 286.308 61.9173C286.298 62.0922 286.211 62.2475 286.046 62.3835Z" fill="#3BACB6"/>
<path fill-rule="evenodd" clip-rule="evenodd" d="M31.7567 19.6062H36.0943C36.5318 19.6062 36.9513 19.4324 37.2606 19.1231C37.5699 18.8138 37.7436 18.3943 37.7436 17.9569C37.7436 17.5195 37.5699 17.1 37.2606 16.7907C36.9513 16.4814 36.5318 16.3076 36.0943 16.3076H31.7567C31.1811 16.3076 30.5115 16.4016 29.86 16.7199C27.5114 17.8662 26.1821 19.8487 25.4514 21.78C25.204 22.4315 25.0209 23.0912 24.8857 23.7295H28.28C28.3542 23.4656 28.4383 23.205 28.5356 22.946C29.0667 21.5408 29.9293 20.3566 31.3064 19.6837C31.4495 19.6249 31.6038 19.5985 31.7583 19.6062H31.7567ZM22.0753 25.3788C21.1649 25.3788 20.4046 26.1308 20.652 27.0083C21.6036 30.4042 25.4778 33.0464 30.3218 33.5412V36.1108C29.1755 36.1388 27.9847 36.2312 26.9737 36.5247C26.1854 36.7556 25.3492 37.1482 24.7092 37.8673C24.0396 38.6193 23.7246 39.5693 23.7246 40.6298C23.7246 41.6903 24.038 42.642 24.7076 43.3957C25.3475 44.1165 26.1837 44.5123 26.9737 44.7432C27.5015 44.8966 28.0788 44.9955 28.6725 45.0582V41.7382C28.4106 41.7026 28.1516 41.6486 27.8973 41.5765C27.452 41.4446 27.2557 41.2995 27.1749 41.2071C27.1222 41.1477 27.0232 41.0141 27.0232 40.6298C27.0232 40.2505 27.1222 40.1186 27.1716 40.0608C27.2541 39.9685 27.4487 39.8217 27.8973 39.6914C28.529 39.5083 29.3438 39.439 30.3218 39.4127V48.469H25.3739V51.7676H38.5683V48.469H33.6204V39.3368C35.4379 39.1949 36.9108 38.7958 38.0191 38.0817C39.5777 37.0756 40.2176 35.5797 40.2176 33.9914C40.2307 33.1432 40.0202 32.3064 39.6074 31.5653C41.4612 30.3943 42.7856 28.8077 43.2902 27.0083C43.5376 26.1308 42.779 25.3788 41.8669 25.3788H22.0753ZM36.2312 35.3076C35.7645 35.6094 34.9547 35.8964 33.6204 36.025V33.5412C34.611 33.4419 35.5893 33.2452 36.5413 32.954C36.8134 33.2129 36.919 33.528 36.919 33.9931C36.919 34.6033 36.7343 34.9843 36.2312 35.3076Z" fill="#3BACB6"/>
<path fill-rule="evenodd" clip-rule="evenodd" d="M16.7467 6.85094C16.7467 3.06727 19.814 0 23.5977 0H40.3444C44.1281 0 47.1953 3.06727 47.1953 6.85094V13.7019C47.1953 14.9631 46.1729 15.9855 44.9117 15.9855C43.6505 15.9855 42.6281 14.9631 42.6281 13.7019V6.85094C42.6281 5.58972 41.6056 4.56729 40.3444 4.56729H23.5977C22.3365 4.56729 21.314 5.58972 21.314 6.85094V13.7019C21.314 14.9631 20.2916 15.9855 19.0304 15.9855C17.7692 15.9855 16.7467 14.9631 16.7467 13.7019V6.85094ZM6.85094 21.314C5.58972 21.314 4.56729 22.3365 4.56729 23.5977V40.3444C4.56729 41.6056 5.58972 42.6281 6.85094 42.6281H12.9407C14.2019 42.6281 15.2243 43.6505 15.2243 44.9117C15.2243 46.1729 14.2019 47.1953 12.9407 47.1953H6.85094C3.06727 47.1953 0 44.1281 0 40.3444V23.5977C0 19.814 3.06727 16.7467 6.85094 16.7467H12.9407C14.2019 16.7467 15.2243 17.7692 15.2243 19.0304C15.2243 20.2916 14.2019 21.314 12.9407 21.314H6.85094ZM48.7178 19.0304C48.7178 17.7692 49.7402 16.7467 51.0014 16.7467H57.0911C60.8748 16.7467 63.9421 19.814 63.9421 23.5977V40.3444C63.9421 44.1281 60.8748 47.1953 57.0911 47.1953H51.0014C49.7402 47.1953 48.7178 46.1729 48.7178 44.9117C48.7178 43.6505 49.7402 42.6281 51.0014 42.6281H57.0911C58.3524 42.6281 59.3748 41.6056 59.3748 40.3444V23.5977C59.3748 22.3365 58.3524 21.314 57.0911 21.314H51.0014C49.7402 21.314 48.7178 20.2916 48.7178 19.0304ZM19.0304 48.7178C20.2916 48.7178 21.314 49.7402 21.314 51.0014V57.0911C21.314 58.3524 22.3365 59.3748 23.5977 59.3748H40.3444C41.6056 59.3748 42.6281 58.3524 42.6281 57.0911V51.0014C42.6281 49.7402 43.6505 48.7178 44.9117 48.7178C46.1729 48.7178 47.1953 49.7402 47.1953 51.0014V57.0911C47.1953 60.8748 44.1281 63.9421 40.3444 63.9421H23.5977C19.814 63.9421 16.7467 60.8748 16.7467 57.0911V51.0014C16.7467 49.7402 17.7692 48.7178 19.0304 48.7178Z" fill="#82DBD8"/>
<path d="M81.2003 44.3582C79.7342 44.3582 78.6753 44.1396 78.0237 43.7024C77.4128 43.2653 77.0259 42.7089 76.863 42.0333C76.7 41.3179 76.6186 40.5628 76.6186 39.7679V7.15942C76.6186 6.40432 76.7 5.70883 76.863 5.07295C77.0259 4.39733 77.4331 3.84094 78.0847 3.40378C78.7364 2.96661 79.8156 2.74803 81.3225 2.74803C82.3407 2.74803 83.1145 2.80764 83.6439 2.92687C84.1734 3.0461 84.5603 3.22494 84.8046 3.46339C85.049 3.6621 85.3137 3.90056 85.5988 4.17875L99.344 22.3012H98.4277L112.234 4.17875C112.56 3.78133 112.886 3.48326 113.211 3.28455C113.537 3.08584 113.945 2.94674 114.433 2.86726C114.963 2.78777 115.696 2.74803 116.632 2.74803C118.099 2.74803 119.158 2.96661 119.809 3.40378C120.461 3.84094 120.868 4.4172 121.031 5.13257C121.194 5.80818 121.275 6.52355 121.275 7.27865V39.8872C121.275 40.6423 121.194 41.3576 121.031 42.0333C120.868 42.7089 120.461 43.2653 119.809 43.7024C119.158 44.1396 118.078 44.3582 116.571 44.3582C115.105 44.3582 114.046 44.1396 113.395 43.7024C112.743 43.2653 112.336 42.689 112.173 41.9736C112.01 41.2583 111.929 40.5231 111.929 39.7679V18.486L102.826 31.0644C102.663 31.2631 102.439 31.5413 102.154 31.899C101.869 32.2169 101.462 32.4951 100.932 32.7336C100.444 32.972 99.7717 33.0912 98.9164 33.0912C98.0204 33.0912 97.3077 32.972 96.7783 32.7336C96.2895 32.4951 95.9026 32.2169 95.6176 31.899C95.3325 31.581 95.0881 31.3028 94.8845 31.0644L85.8432 18.5456V39.8872C85.8432 40.6423 85.7617 41.3576 85.5988 42.0333C85.4359 42.7089 85.0286 43.2653 84.377 43.7024C83.7661 44.1396 82.7072 44.3582 81.2003 44.3582Z" fill="#3BACB6"/>
<path d="M133.338 44.3582C131.872 44.3582 130.813 44.1595 130.161 43.762C129.509 43.3249 129.102 42.7486 128.939 42.0333C128.817 41.3179 128.756 40.5827 128.756 39.8276V7.21904C128.756 5.47037 129.102 4.27811 129.794 3.64223C130.487 3.00635 131.729 2.68842 133.521 2.68842H156.613C157.428 2.68842 158.181 2.7679 158.873 2.92687C159.566 3.0461 160.136 3.42365 160.584 4.05952C161.032 4.6954 161.256 5.76844 161.256 7.27865C161.256 8.70937 161.032 9.74267 160.584 10.3785C160.136 11.0144 159.545 11.4118 158.812 11.5708C158.12 11.69 157.366 11.7497 156.552 11.7497H138.042V19.4398H150.626C151.441 19.4398 152.153 19.4994 152.764 19.6186C153.416 19.7378 153.925 20.0757 154.292 20.632C154.658 21.1884 154.841 22.1224 154.841 23.4339C154.841 24.6659 154.658 25.5601 154.292 26.1165C153.925 26.6729 153.416 27.0107 152.764 27.1299C152.113 27.2491 151.359 27.3087 150.504 27.3087H138.042V35.2969H156.613C157.428 35.2969 158.181 35.3764 158.873 35.5354C159.566 35.6944 160.136 36.0918 160.584 36.7277C161.032 37.3238 161.256 38.377 161.256 39.8872C161.256 41.3179 161.032 42.3512 160.584 42.9871C160.136 43.6229 159.545 44.0005 158.812 44.1197C158.12 44.2787 157.366 44.3582 156.552 44.3582H133.338Z" fill="#3BACB6"/>
<path d="M171.785 44.3582C170.359 44.3582 169.321 44.1396 168.669 43.7024C168.018 43.2653 167.61 42.7089 167.447 42.0333C167.284 41.3179 167.203 40.5628 167.203 39.7679V7.04019C167.203 6.28509 167.284 5.5896 167.447 4.95373C167.61 4.31785 168.018 3.8012 168.669 3.40378C169.362 2.96661 170.461 2.74803 171.968 2.74803C173.434 2.74803 174.452 2.92687 175.023 3.28455C175.593 3.60249 176.102 4.05952 176.55 4.65566L194.388 28.5606V7.04019C194.388 6.28509 194.469 5.5896 194.632 4.95373C194.836 4.31785 195.264 3.8012 195.915 3.40378C196.567 2.96661 197.626 2.74803 199.092 2.74803C200.599 2.74803 201.658 2.96661 202.269 3.40378C202.92 3.84094 203.307 4.4172 203.429 5.13257C203.592 5.80818 203.674 6.52355 203.674 7.27865V39.8276C203.674 40.5827 203.592 41.3179 203.429 42.0333C203.266 42.7089 202.859 43.2653 202.208 43.7024C201.556 44.1396 200.477 44.3582 198.97 44.3582C197.829 44.3582 196.933 44.2588 196.282 44.0601C195.671 43.8614 195.141 43.4839 194.693 42.9275L176.489 18.8436V39.8276C176.489 40.5827 176.407 41.3179 176.244 42.0333C176.081 42.7089 175.674 43.2653 175.023 43.7024C174.371 44.1396 173.292 44.3582 171.785 44.3582Z" fill="#3BACB6"/>
<path d="M215.746 44.3582C214.239 44.3582 213.16 44.1396 212.508 43.7024C211.897 43.2653 211.511 42.689 211.348 41.9736C211.185 41.2583 211.103 40.5231 211.103 39.7679V7.21904C211.103 6.46393 211.185 5.74857 211.348 5.07295C211.511 4.35759 211.918 3.78133 212.569 3.34417C213.221 2.907 214.3 2.68842 215.807 2.68842H228.331C230.041 2.68842 231.752 2.98648 233.462 3.58262C235.213 4.17875 236.822 5.1127 238.288 6.38445C239.795 7.61646 240.997 9.14654 241.893 10.9747C242.829 12.8028 243.298 14.9489 243.298 17.4129C243.298 19.8372 242.829 21.9634 241.893 23.7916C240.997 25.6197 239.795 27.1498 238.288 28.3818C236.822 29.5741 235.213 30.4881 233.462 31.124C231.711 31.7201 229.98 32.0182 228.27 32.0182H220.45V39.8276C220.45 40.5827 220.369 41.3179 220.206 42.0333C220.043 42.7089 219.635 43.2653 218.984 43.7024C218.332 44.1396 217.253 44.3582 215.746 44.3582ZM220.45 22.957H228.331C229.227 22.957 230.102 22.7781 230.957 22.4205C231.853 22.023 232.587 21.407 233.157 20.5724C233.768 19.7378 234.073 18.6648 234.073 17.3533C234.073 16.2405 233.829 15.2668 233.34 14.4323C232.851 13.5977 232.159 12.9419 231.263 12.465C230.408 11.9881 229.41 11.7497 228.27 11.7497H220.45V22.957Z" fill="#3BACB6"/>
<path fill-rule="evenodd" clip-rule="evenodd" d="M268.177 39.1223C276.889 39.1223 283.952 32.0595 283.952 23.3472C283.952 14.6348 276.889 7.57208 268.177 7.57208C259.464 7.57208 252.402 14.6348 252.402 23.3472C252.402 32.0595 259.464 39.1223 268.177 39.1223ZM268.177 44.1703C279.677 44.1703 289 34.8475 289 23.3472C289 11.8469 279.677 2.52405 268.177 2.52405C256.677 2.52405 247.354 11.8469 247.354 23.3472C247.354 34.8475 256.677 44.1703 268.177 44.1703Z" fill="#3BACB6"/>
<path fill-rule="evenodd" clip-rule="evenodd" d="M275.797 15.6897C276.783 16.6754 276.783 18.2735 275.797 19.2592L263.901 31.1554C262.915 32.1411 261.317 32.1411 260.332 31.1554C259.346 30.1697 259.346 28.5716 260.332 27.5859L272.228 15.6897C273.213 14.704 274.812 14.704 275.797 15.6897Z" fill="#3BACB6"/>
</svg>
